<svg width="27" height="27" viewBox="0 0 27 27" fill="none" xmlns="http://www.w3.org/2000/svg">
<path d="M17.4059 13.2649C20.8871 13.2649 23.672 15.6766 23.672 18.6914C23.672 19.7526 23.3239 20.7535 22.7112 21.5855L27 25.3238L25.0645 27L20.72 23.2979C19.7592 23.8164 18.6173 24.1179 17.4059 24.1179C13.9247 24.1179 11.1398 21.7061 11.1398 18.6914C11.1398 15.6766 13.9247 13.2649 17.4059 13.2649ZM17.4059 15.6766C16.4826 15.6766 15.5972 15.9943 14.9443 16.5596C14.2915 17.125 13.9247 17.8918 13.9247 18.6914C13.9247 19.4909 14.2915 20.2578 14.9443 20.8231C15.5972 21.3885 16.4826 21.7061 17.4059 21.7061C18.3291 21.7061 19.2146 21.3885 19.8674 20.8231C20.5203 20.2578 20.8871 19.4909 20.8871 18.6914C20.8871 17.8918 20.5203 17.125 19.8674 16.5596C19.2146 15.9943 18.3291 15.6766 17.4059 15.6766ZM22.2795 8.44127H2.78494V21.7061H9.05106C9.48272 22.6105 10.1093 23.4185 10.8752 24.1179H2.78494C2.04633 24.1179 1.33797 23.8638 0.81569 23.4115C0.293412 22.9592 0 22.3458 0 21.7061V4.82358C0 3.48504 1.2393 2.41179 2.78494 2.41179H4.17741V0H6.96235V2.41179H18.1021V0H20.8871V2.41179H22.2795C23.0181 2.41179 23.7265 2.66589 24.2488 3.11819C24.7711 3.57049 25.0645 4.18394 25.0645 4.82358V14.5069C24.3682 13.5301 23.3935 12.7101 22.2795 12.059V8.44127Z" fill="#061457"/>
</svg>
