<svg width="23" height="23" viewBox="0 0 23 23" fill="none" xmlns="http://www.w3.org/2000/svg">
<path d="M21.4288 9.16387L12.9913 0.726369C12.5958 0.330922 12.0593 0.108772 11.5 0.108772C10.9407 0.108772 10.4042 0.330922 10.0087 0.726369L1.57117 9.16387C1.3745 9.35933 1.21859 9.5919 1.1125 9.84809C1.0064 10.1043 0.95223 10.379 0.953121 10.6563V20.7813C0.953121 21.1169 1.08646 21.4388 1.32381 21.6762C1.56116 21.9135 1.88308 22.0469 2.21875 22.0469H8.96875C9.30441 22.0469 9.62633 21.9135 9.86368 21.6762C10.101 21.4388 10.2344 21.1169 10.2344 20.7813V15.2969H12.7656V20.7813C12.7656 21.1169 12.899 21.4388 13.1363 21.6762C13.3737 21.9135 13.6956 22.0469 14.0312 22.0469H20.7812C21.1169 22.0469 21.4388 21.9135 21.6762 21.6762C21.9135 21.4388 22.0469 21.1169 22.0469 20.7813V10.6563C22.0478 10.379 21.9936 10.1043 21.8875 9.84809C21.7814 9.5919 21.6255 9.35933 21.4288 9.16387ZM19.5156 19.5156H15.2969V14.0313C15.2969 13.6956 15.1635 13.3737 14.9262 13.1363C14.6888 12.899 14.3669 12.7656 14.0312 12.7656H8.96875C8.63308 12.7656 8.31116 12.899 8.07381 13.1363C7.83646 13.3737 7.70312 13.6956 7.70312 14.0313V19.5156H3.48437V10.8303L11.5 2.81465L19.5156 10.8303V19.5156Z" fill="#061457"/>
</svg>
