<svg width="27" height="27" viewBox="0 0 27 27" fill="none" xmlns="http://www.w3.org/2000/svg">
<path d="M13.5 27L11.5425 25.0872C9.27 22.8556 7.39125 20.9305 5.90625 19.312C4.42125 17.6935 3.24 16.2466 2.3625 14.9714C1.485 13.6717 0.86625 12.4823 0.50625 11.4033C0.16875 10.3243 0 9.22071 0 8.09264C0 5.78747 0.70875 3.8624 2.12625 2.31744C3.54375 0.77248 5.31 0 7.425 0C8.595 0 9.70875 0.269755 10.7663 0.809264C11.8238 1.34877 12.735 2.10899 13.5 3.08992C14.265 2.10899 15.1763 1.34877 16.2338 0.809264C17.2913 0.269755 18.405 0 19.575 0C21.69 0 23.4563 0.77248 24.8738 2.31744C26.2913 3.8624 27 5.78747 27 8.09264C27 9.22071 26.82 10.3243 26.46 11.4033C26.1225 12.4823 25.515 13.6717 24.6375 14.9714C23.76 16.2466 22.5788 17.6935 21.0938 19.312C19.6088 20.9305 17.73 22.8556 15.4575 25.0872L13.5 27ZM13.5 23.0272C15.66 20.9183 17.4375 19.1158 18.8325 17.6199C20.2275 16.0995 21.33 14.7875 22.14 13.6839C22.95 12.5559 23.5125 11.5627 23.8275 10.7044C24.1425 9.82153 24.3 8.95095 24.3 8.09264C24.3 6.62125 23.85 5.3951 22.95 4.41417C22.05 3.43324 20.925 2.94278 19.575 2.94278C18.5175 2.94278 17.5388 3.27384 16.6388 3.93597C15.7388 4.57357 15.12 5.3951 14.7825 6.40055H12.2175C11.88 5.3951 11.2613 4.57357 10.3613 3.93597C9.46125 3.27384 8.4825 2.94278 7.425 2.94278C6.075 2.94278 4.95 3.43324 4.05 4.41417C3.15 5.3951 2.7 6.62125 2.7 8.09264C2.7 8.95095 2.8575 9.82153 3.1725 10.7044C3.4875 11.5627 4.05 12.5559 4.86 13.6839C5.67 14.7875 6.7725 16.0995 8.1675 17.6199C9.5625 19.1158 11.34 20.9183 13.5 23.0272Z" fill="#061457"/>
</svg>
