<svg width="27" height="27" viewBox="0 0 27 27" fill="none" xmlns="http://www.w3.org/2000/svg">
<path fill-rule="evenodd" clip-rule="evenodd" d="M18 10.125C18 11.3185 17.5259 12.4631 16.682 13.307C15.8381 14.1509 14.6935 14.625 13.5 14.625C12.3065 14.625 11.1619 14.1509 10.318 13.307C9.47411 12.4631 9 11.3185 9 10.125C9 8.93153 9.47411 7.78693 10.318 6.94302C11.1619 6.09911 12.3065 5.625 13.5 5.625C14.6935 5.625 15.8381 6.09911 16.682 6.94302C17.5259 7.78693 18 8.93153 18 10.125ZM15.75 10.125C15.75 10.7217 15.5129 11.294 15.091 11.716C14.669 12.1379 14.0967 12.375 13.5 12.375C12.9033 12.375 12.331 12.1379 11.909 11.716C11.4871 11.294 11.25 10.7217 11.25 10.125C11.25 9.52826 11.4871 8.95597 11.909 8.53401C12.331 8.11205 12.9033 7.875 13.5 7.875C14.0967 7.875 14.669 8.11205 15.091 8.53401C15.5129 8.95597 15.75 9.52826 15.75 10.125Z" fill="#061457"/>
<path fill-rule="evenodd" clip-rule="evenodd" d="M13.5 1.125C6.66562 1.125 1.125 6.66562 1.125 13.5C1.125 20.3344 6.66562 25.875 13.5 25.875C20.3344 25.875 25.875 20.3344 25.875 13.5C25.875 6.66562 20.3344 1.125 13.5 1.125ZM3.375 13.5C3.375 15.8512 4.17712 18.0157 5.5215 19.7347C6.46587 18.4951 7.68392 17.4905 9.08059 16.7993C10.4773 16.1081 12.0148 15.749 13.5731 15.75C15.1114 15.7482 16.6298 16.0977 18.0125 16.7719C19.3952 17.4461 20.6057 18.4272 21.5516 19.6402C22.5264 18.3618 23.1827 16.8696 23.4663 15.2872C23.7498 13.7047 23.6525 12.0775 23.1823 10.5401C22.7121 9.00274 21.8826 7.59943 20.7624 6.44629C19.6422 5.29315 18.2635 4.42334 16.7404 3.90882C15.2173 3.3943 13.5936 3.24987 12.0036 3.48747C10.4136 3.72507 8.90301 4.33788 7.59686 5.27518C6.29071 6.21249 5.22654 7.44735 4.49238 8.87759C3.75823 10.3078 3.3752 11.8923 3.375 13.5ZM13.5 23.625C11.1756 23.6288 8.92141 22.8291 7.119 21.3615C7.84441 20.3227 8.81009 19.4745 9.93383 18.8893C11.0576 18.304 12.3061 17.9989 13.5731 18C14.8243 17.9989 16.0577 18.2964 17.1709 18.8677C18.284 19.4391 19.2447 20.2678 19.9732 21.285C18.1569 22.8004 15.8655 23.6287 13.5 23.625Z" fill="#061457"/>
</svg>
