<svg width="19" height="20" viewBox="0 0 19 20" fill="none" xmlns="http://www.w3.org/2000/svg">
<path d="M2.73407 2.59772C5.9474 -0.254067 10.9078 -0.158219 14.0046 2.88385L14.2946 3.18365C17.0984 6.23223 17.1037 10.8806 14.3112 13.9356L18.3444 17.8965L18.4128 17.9717C18.736 18.3609 18.7135 18.935 18.3444 19.2979C17.975 19.6608 17.3891 19.6839 16.9929 19.3663L16.9177 19.2979L12.7868 15.2403C9.71638 17.275 5.55326 17.0423 2.73407 14.5401L2.42841 14.2559C-0.768266 11.1157 -0.768157 6.0232 2.42841 2.88287L2.73407 2.59772ZM12.5778 4.28522C10.1692 1.9192 6.2639 1.91834 3.85516 4.28424C1.44657 6.65039 1.44673 10.4873 3.85516 12.8536C6.26382 15.2194 10.1691 15.2194 12.5778 12.8536C14.9862 10.4874 14.9862 6.65139 12.5778 4.28522Z" fill="white"/>
</svg>
